<?xml version="1.0" standalone="no"?><!DOCTYPE svg PUBLIC "-//W3C//DTD SVG 1.1//EN" "http://www.w3.org/Graphics/SVG/1.1/DTD/svg11.dtd"><svg t="1731583759293" class="icon" viewBox="0 0 1024 1024" version="1.1" xmlns="http://www.w3.org/2000/svg" p-id="21513" xmlns:xlink="http://www.w3.org/1999/xlink" width="512" height="512"><path d="M918.4 16h-176-4.8l-564.8 1.6c-49.6 0-89.6 40-89.6 89.6v134.4h102.4c19.2 0 33.6 14.4 33.6 33.6v22.4c0 19.2-14.4 33.6-33.6 33.6h-11.2V320c0-19.2-14.4-33.6-33.6-33.6h-92.8c-12.8 1.6-24 9.6-28.8 22.4-1.6 3.2-1.6 8-1.6 11.2v22.4c0 19.2 14.4 33.6 33.6 33.6h33.6V624h102.4c19.2 0 33.6 14.4 33.6 33.6v22.4c0 19.2-14.4 33.6-33.6 33.6h-11.2V704c0-19.2-14.4-33.6-33.6-33.6h-92.8c-12.8 1.6-24 9.6-28.8 22.4-1.6 3.2-1.6 8-1.6 11.2v22.4c0 19.2 14.4 33.6 33.6 33.6h33.6v156.8c0 49.6 40 89.6 89.6 89.6h744c49.6 0 89.6-40 89.6-89.6V105.6C1008 56 968 16 918.4 16z m-65.6 732.8s-1.6 3.2-1.6 4.8c-1.6 3.2-6.4 8-9.6 11.2l-9.6 4.8-6.4 1.6H342.4c-3.2-1.6-8-3.2-11.2-4.8-3.2-1.6-6.4-6.4-8-11.2 0-1.6-1.6-4.8-1.6-4.8-1.6-1.6-6.4-22.4 0-44.8V704l1.6-1.6c16-20.8 54.4-43.2 96-65.6 38.4-20.8 94.4-52.8 94.4-68.8v-9.6c0-4.8-1.6-8-4.8-11.2-33.6-33.6-51.2-80-51.2-129.6 0-80 16-163.2 129.6-163.2s129.6 81.6 129.6 163.2c0 49.6-17.6 96-51.2 129.6-3.2 3.2-4.8 6.4-4.8 11.2v9.6c0 16 57.6 48 94.4 68.8 41.6 22.4 80 44.8 96 65.6l1.6 1.6v1.6c8 20.8 1.6 41.6 0 43.2z" p-id="21514" fill="#bfbfbf"></path></svg>