<?xml version="1.0" standalone="no"?><!DOCTYPE svg PUBLIC "-//W3C//DTD SVG 1.1//EN" "http://www.w3.org/Graphics/SVG/1.1/DTD/svg11.dtd"><svg t="1731583162348" class="icon" viewBox="0 0 1024 1024" version="1.1" xmlns="http://www.w3.org/2000/svg" p-id="7112" xmlns:xlink="http://www.w3.org/1999/xlink" width="512" height="512"><path d="M1.759249 268.461345c0 33.425724 27.092429 60.518154 60.518153 60.518153s60.518154-27.092429 60.518154-60.518153-27.092429-60.518154-60.518154-60.518154-60.518154 27.092429-60.518153 60.518154zM984.24098 708.508075c-9.265376-9.265376-129.715267-129.715267-134.289314-203.838278v-37.061505c0-162.085443-157.511396-296.49204-352.084297-296.49204S145.783072 305.52285 145.783072 467.608292c0 87.962433 46.326881 176.042149 129.715267 231.634406 36.240522 22.635666 76.820525 40.814569 117.635094 54.653992 1.876532 0.586416 3.98763 1.172832 5.864162 1.524682 26.38873 4.456763 48.907113 8.913527 75.647692 13.37029 37.061505 4.574047 69.43168 9.265376 101.919139 23.104799 41.635551 18.530752 50.900928 50.900928 64.857633 87.962433 4.574047 13.839423 9.265376 23.104799 13.839423 37.061505 18.530752 41.635551 50.900928 74.12301 87.962433 87.962432 64.857634 27.796129 134.289314 18.530752 189.881571-18.530752s87.962433-97.227809 87.962433-162.085443c4.925896-41.635551-9.03081-78.697056-36.826939-115.758561zM211.227122 186.714924c-11.611041 0-23.339365-4.104914-32.722025-12.432024-20.407284-18.06162-22.283816-49.258962-4.222197-69.78353C228.819608 43.04295 372.843431-2.697515 452.126904 3.283931c27.209713 1.993815 47.616997 25.68503 45.623182 52.894743s-25.567747 47.851563-52.894743 45.623181c-60.40087-4.574047-168.653304 36.826938-196.449433 68.258848-9.851792 11.024625-23.456649 16.654221-37.178788 16.654221z" fill="#bfbfbf" p-id="7113"></path></svg>